<svg xmlns="http://www.w3.org/2000/svg" viewBox="0 0 517.32 182"><defs><style>.cls-1{fill:#fff;}</style></defs><title>Recurso 1</title><g id="Capa_2" data-name="Capa 2"><g id="Capa_1-2" data-name="Capa 1"><path class="cls-1" d="M0,5.53c0-2.3,18.81-2.3,18.81,0v99.2c0,9.47,1,11.77,2,13.06,1.43,1.87,6.74,2,7.89,2,5,0,5.46,19-.29,19-7-.15-17.08.72-22.82-4.17-3.88-4.16-5.6-9.47-5.6-16.5Z"/><path class="cls-1" d="M42.64,5.53c0-2.3,18.8-2.3,18.8,0v99.2c0,9.47,1,11.77,2,13.06,1.44,1.87,6.75,2,7.9,2,5,0,5.45,19-.29,19-7-.15-17.08.72-22.83-4.17-3.87-4.16-5.59-9.47-5.59-16.5Z"/><path class="cls-1" d="M124.46,138.75c-22.54-.15-42.06-18.52-42.06-42.06V85.06A42,42,0,0,1,124.46,43h.72a42,42,0,0,1,42.06,42.06v4.59c0,4.74-1,9.91-3.88,9.91h-62a23.72,23.72,0,0,0,23.11,20.38h3.59A23.81,23.81,0,0,0,148,108.46c2.59-4.45,18.81,4.88,16.23,9.47a42.42,42.42,0,0,1-36.32,20.82Zm0-76.95a23.31,23.31,0,0,0-23.11,20.67h46.94A23.31,23.31,0,0,0,125.18,61.8Z"/><path class="cls-1" d="M213.32,178.08a34.53,34.53,0,0,1-11-2.15,23.58,23.58,0,0,1-7.18-4.88,29,29,0,0,1-5.6-7.9c-2.29-4.59,14.64-12.92,16.94-8.32.72,1.43,5.74,7.32,9.19,7.32H227c7.46,0,13.78-9.05,13.78-16.51V135.3a40.16,40.16,0,0,1-16.65,3.45h-3.3a42,42,0,0,1-42.06-42.06V85.06A42.12,42.12,0,0,1,220.79,43c17.51,0,26.12,2.58,38.76,7.61v95a32.41,32.41,0,0,1-32.45,32.44ZM240.74,65.82a46.55,46.55,0,0,0-16.65-4h-3.3a23.35,23.35,0,0,0-23.26,23.26V96.69a23.25,23.25,0,0,0,23.26,23.25h3.3a23.08,23.08,0,0,0,16.65-7Z"/><path class="cls-1" d="M273.9,85.2a42,42,0,0,1,41.92-42.06h3.45A42,42,0,0,1,361.18,85.2V96.69a42,42,0,0,1-41.91,42.06h-3.45A42,42,0,0,1,273.9,96.69Zm68.62,0A23.24,23.24,0,0,0,319.27,62h-3.45A23.12,23.12,0,0,0,292.71,85.2V96.69a23.12,23.12,0,0,0,23.11,23.25h3.45a23.24,23.24,0,0,0,23.25-23.25ZM320.41,7.68c2.73-4.3,19.53,3.59,16.8,7.9L321.13,32.66c-2.73,4.31-12.34-.86-9.62-5.17Z"/><path class="cls-1" d="M450.42,102.68v-.1a25.78,25.78,0,0,0,21.28-8.89c10.75-12,10.78-31.52.07-43.56a25.77,25.77,0,0,0-21.25-9v-.1L400.17,41a58,58,0,0,1,5.43-12c19.72-31,58.16-38.32,85.86-16.23S525.62,78,505.9,109,384,182,384,182s.61-39.61,4.79-79.42Z"/><circle class="cls-1" cx="449.76" cy="71.97" r="13.27"/></g></g></svg>