<svg xmlns="http://www.w3.org/2000/svg" viewBox="0 0 565.19 272.71"><defs><style>.cls-1{fill:#fff;}</style></defs><title>Recurso 1</title><g id="Capa_2" data-name="Capa 2"><g id="Capa_1-2" data-name="Capa 1"><path class="cls-1" d="M0,2.7C0-.9,29.43-.9,29.43,2.7V157.92c0,14.83,1.57,18.42,3.14,20.44,2.25,2.92,10.56,3.15,12.36,3.15,7.86,0,8.53,29.65-.45,29.65-11-.22-26.73,1.12-35.72-6.51C2.7,198.13,0,189.82,0,178.81Z"/><path class="cls-1" d="M66.72,2.7c0-3.6,29.42-3.6,29.42,0V157.92c0,14.83,1.58,18.42,3.15,20.44,2.25,2.92,10.56,3.15,12.36,3.15,7.86,0,8.53,29.65-.45,29.65-11-.22-26.74,1.12-35.72-6.51-6.07-6.52-8.76-14.83-8.76-25.84Z"/><path class="cls-1" d="M194.76,211.16c-35.27-.22-65.82-29-65.82-65.82V127.15a65.76,65.76,0,0,1,65.82-65.82h1.12a65.76,65.76,0,0,1,65.82,65.82v7.19c0,7.41-1.57,15.5-6.06,15.5h-97c2.47,18,18.2,31.89,36.17,31.89h5.62c14.6,0,26.05-9.21,31.22-18,4-7,29.43,7.64,25.38,14.83-9.21,15.95-29.42,32.57-56.83,32.57Zm0-120.41a36.47,36.47,0,0,0-36.17,32.35h73.46a36.47,36.47,0,0,0-36.17-32.35Z"/><path class="cls-1" d="M333.81,272.71a50.05,50.05,0,0,1-5.61-.45,48.92,48.92,0,0,1-11.68-2.92,36.72,36.72,0,0,1-11.24-7.63c-3.59-3.37-6.29-7.64-8.76-12.36-3.59-7.19,22.92-20.22,26.51-13,1.12,2.25,9,11.46,14.38,11.46h17.74c11.68,0,21.57-14.15,21.57-25.84V205.77a63,63,0,0,1-26.06,5.39h-5.17a65.77,65.77,0,0,1-65.82-65.82V127.15a65.91,65.91,0,0,1,65.82-65.82c27.41,0,40.89,4,60.66,11.9V221.94a50.72,50.72,0,0,1-50.77,50.77ZM376.72,97c-8.31-3.37-14.83-5.61-26.06-6.29h-5.17a36.53,36.53,0,0,0-36.39,36.4v18.19a36.38,36.38,0,0,0,36.39,36.39h5.17a36.1,36.1,0,0,0,26.06-11Z"/><path class="cls-1" d="M428.61,127.37A65.72,65.72,0,0,1,494.2,61.55h5.4a65.72,65.72,0,0,1,65.59,65.82v18a65.72,65.72,0,0,1-65.59,65.82h-5.4a65.72,65.72,0,0,1-65.59-65.82Zm107.38,0A36.38,36.38,0,0,0,499.6,91h-5.4A36.19,36.19,0,0,0,458,127.37v18a36.19,36.19,0,0,0,36.16,36.39h5.4A36.38,36.38,0,0,0,536,145.34ZM501.39,6.07c4.27-6.74,30.55,5.61,26.29,12.35L502.52,45.15c-4.27,6.74-19.32-1.35-15-8.08Z"/></g></g></svg>