<svg id="Capa_1" data-name="Capa 1" xmlns="http://www.w3.org/2000/svg" xmlns:xlink="http://www.w3.org/1999/xlink" viewBox="0 0 290.07 291.37"><defs><style>.cls-1{fill:#e0e0e0;}.cls-2{fill:url(#Degradado_sin_nombre);}.cls-3,.cls-4{fill:#fff;}.cls-3{fill-rule:evenodd;}</style><linearGradient id="Degradado_sin_nombre" x1="147.76" y1="940.82" x2="147.76" y2="1218.88" gradientTransform="matrix(1, 0, 0, -1, 0, 1223.89)" gradientUnits="userSpaceOnUse"><stop offset="0" stop-color="#20b038"/><stop offset="1" stop-color="#60d66a"/></linearGradient></defs><title>wpp-loco</title><path class="cls-1" d="M250.54,42.34A143.54,143.54,0,0,0,148.37,0C68.76,0,4,64.77,3.94,144.37a144.12,144.12,0,0,0,19.28,72.19L2.73,291.37,79.29,271.3a144.41,144.41,0,0,0,69,17.57h.06c79.6,0,144.4-64.78,144.43-144.38A143.55,143.55,0,0,0,250.54,42.34ZM148.37,264.49h0a119.9,119.9,0,0,1-61.1-16.73l-4.39-2.6L37.41,257.07l12.13-44.28-2.86-4.54a119.66,119.66,0,0,1-18.35-63.87c0-66.16,53.87-120,120.09-120a120.05,120.05,0,0,1,0,240.1Z" transform="translate(-2.73 0)"/><path class="cls-2" d="M9.36,283.07l19.55-71.4a137.61,137.61,0,0,1-18.4-68.88C10.55,66.82,72.37,5,148.34,5A137.83,137.83,0,0,1,286.17,142.9c0,76-61.86,137.78-137.82,137.78h-.06a137.82,137.82,0,0,1-65.86-16.77L9.36,283.07Z" transform="translate(-2.73 0)"/><path class="cls-3" d="M112.68,83.08c-2.67-5.94-5.48-6.06-8-6.16-2.07-.09-4.45-.09-6.83-.09a13.1,13.1,0,0,0-9.51,4.47C85,84.87,75.82,93.5,75.82,111.05s12.78,34.51,14.57,36.89,24.67,39.55,60.93,53.85c30.14,11.88,36.27,9.52,42.81,8.92s21.11-8.63,24.08-17,3-15.46,2.08-17-3.27-2.38-6.84-4.16-21.1-10.41-24.37-11.6-5.65-1.79-8,1.78-9.21,11.6-11.29,14-4.16,2.68-7.73.9S147,172.14,133.34,160c-10.6-9.46-17.76-21.14-19.85-24.71s-.22-5.5,1.57-7.28c1.6-1.59,3.57-4.16,5.35-6.24a24.62,24.62,0,0,0,3.57-6,6.57,6.57,0,0,0-.3-6.25c-.89-1.78-7.83-19.43-11-26.48Z" transform="translate(-2.73 0)"/><path class="cls-4" d="M249.36,41.88A141.87,141.87,0,0,0,148.37,0C69.67,0,5.63,64.05,5.59,142.74A142.51,142.51,0,0,0,24.65,214.1l-20.26,74,75.69-19.84a142.69,142.69,0,0,0,68.22,17.37h.07c78.68,0,142.73-64,142.77-142.72a141.9,141.9,0,0,0-41.78-101Zm-101,219.6h-.05a118.51,118.51,0,0,1-60.4-16.54l-4.33-2.57L38.67,254.15l12-43.78-2.82-4.49a118.67,118.67,0,1,1,100.53,55.6Z" transform="translate(-2.73 0)"/></svg>